<svg xmlns="http://www.w3.org/2000/svg" width="151" height="45" viewBox="0 0 151 45">
    <g fill="#FFF" fill-rule="evenodd">
        <path d="M47 17.75h4.554v10.281h11.964V17.75h4.554v25.813h-4.554V32.187H51.554v11.376H47V17.75zm37.229 23.406h-.109c-.626.997-1.421 1.72-2.385 2.17-.964.45-2.024.674-3.18.674-.796 0-1.573-.11-2.332-.328a6.291 6.291 0 0 1-2.024-.984 5.044 5.044 0 0 1-1.428-1.641c-.361-.656-.542-1.422-.542-2.297 0-.948.169-1.756.506-2.424a4.97 4.97 0 0 1 1.355-1.678 6.851 6.851 0 0 1 1.97-1.075 13.4 13.4 0 0 1 2.332-.602c.807-.133 1.62-.218 2.44-.255.819-.036 1.59-.055 2.313-.055h1.084v-.474c0-1.093-.374-1.914-1.12-2.46-.748-.547-1.7-.82-2.856-.82-.916 0-1.771.163-2.566.491a6.49 6.49 0 0 0-2.06 1.331l-2.278-2.297a8.398 8.398 0 0 1 3.38-2.15c1.29-.438 2.62-.657 3.994-.657 1.229 0 2.265.14 3.108.42.844.279 1.542.637 2.097 1.075.554.437.982.942 1.283 1.513.301.571.518 1.148.65 1.732a9.55 9.55 0 0 1 .235 1.695c.024.547.037 1.027.037 1.44v10.063h-3.904v-2.407zm-.253-5.432h-.904c-.602 0-1.277.024-2.024.073-.747.048-1.452.164-2.114.346-.663.183-1.223.45-1.681.802-.458.353-.687.845-.687 1.477 0 .413.09.76.271 1.039.181.28.416.516.705.71.29.195.615.335.976.42.362.085.723.128 1.084.128 1.494 0 2.597-.359 3.308-1.076.71-.717 1.066-1.695 1.066-2.935v-.984zm8.82-9.661h4.12v2.807h.072c.41-.875 1.036-1.635 1.88-2.279.843-.644 1.987-.966 3.433-.966 1.157 0 2.139.194 2.946.583.807.39 1.464.9 1.97 1.532a5.816 5.816 0 0 1 1.084 2.187c.217.826.326 1.69.326 2.589v11.047h-4.338v-8.86c0-.486-.024-1.027-.072-1.622a5.867 5.867 0 0 0-.38-1.677 3.139 3.139 0 0 0-.957-1.313c-.434-.352-1.025-.529-1.772-.529-.722 0-1.33.122-1.825.365a3.513 3.513 0 0 0-1.229.984c-.325.414-.56.888-.705 1.422a6.398 6.398 0 0 0-.216 1.677v9.553h-4.338v-17.5zm34.481 14.875h-.072c-.627 1.069-1.47 1.847-2.53 2.333a8.14 8.14 0 0 1-3.434.729c-1.35 0-2.548-.237-3.596-.71a8.06 8.06 0 0 1-2.693-1.951 8.356 8.356 0 0 1-1.699-2.917c-.386-1.118-.578-2.321-.578-3.61 0-1.288.205-2.49.614-3.609.41-1.118.982-2.09 1.717-2.917a7.917 7.917 0 0 1 2.657-1.95c1.036-.474 2.168-.711 3.397-.711.82 0 1.542.085 2.169.255.626.17 1.18.39 1.663.656a6.65 6.65 0 0 1 1.228.857c.338.304.615.602.832.893h.108V16h4.338v27.563h-4.12v-2.626zm-10.265-6.126c0 .681.115 1.337.343 1.97a4.948 4.948 0 0 0 2.62 2.843c.627.292 1.338.438 2.133.438.796 0 1.506-.146 2.133-.438a4.949 4.949 0 0 0 2.62-2.844 5.736 5.736 0 0 0 .344-1.968c0-.681-.115-1.337-.344-1.97a4.949 4.949 0 0 0-2.62-2.843c-.627-.292-1.337-.438-2.133-.438-.795 0-1.506.146-2.132.438a4.948 4.948 0 0 0-2.62 2.844 5.736 5.736 0 0 0-.344 1.968zm28.554-3.9c-.843-1.192-1.976-1.787-3.397-1.787-.579 0-1.145.146-1.7.438-.553.291-.83.765-.83 1.421 0 .535.228.924.686 1.167.458.243 1.036.45 1.735.62.699.17 1.452.346 2.26.528.807.183 1.56.462 2.258.839a4.957 4.957 0 0 1 1.735 1.55c.458.656.687 1.555.687 2.697 0 1.046-.223 1.927-.669 2.644a5.274 5.274 0 0 1-1.735 1.731 7.661 7.661 0 0 1-2.403.948 12.52 12.52 0 0 1-2.675.292c-1.35 0-2.59-.194-3.723-.583-1.132-.39-2.144-1.094-3.036-2.115l2.892-2.734a8.164 8.164 0 0 0 1.789 1.55c.638.4 1.415.6 2.331.6.313 0 .639-.036.976-.109.337-.073.65-.194.94-.364.289-.17.524-.383.705-.638.18-.255.27-.553.27-.893 0-.608-.228-1.058-.686-1.35-.458-.291-1.036-.528-1.735-.71a37.526 37.526 0 0 0-2.26-.51 8.7 8.7 0 0 1-2.258-.766 4.757 4.757 0 0 1-1.735-1.477c-.458-.632-.687-1.507-.687-2.625 0-.972.199-1.817.597-2.534a5.27 5.27 0 0 1 1.572-1.768 6.766 6.766 0 0 1 2.24-1.02 10.18 10.18 0 0 1 2.567-.329c1.157 0 2.301.2 3.434.602a5.614 5.614 0 0 1 2.747 2.06l-2.892 2.624zM20.528 43.779h-9.17c-.451 0-1.237-.372-1.608-.743a13.066 13.066 0 0 0-1.527-1.308l-6.052-4.856-.006.005a3.38 3.38 0 0 1-1.27-2.635v-5.501c0-1.06.546-2.026 1.423-2.536l7.023-2.897c.021-.01.048-.027.08-.037 1.469-.819 2.193-.63 2.98.777.263.472.405.981.4 1.512 0 1.07-.562 2.052-1.46 2.55L8.05 29.954c-.058.037-.115.074-.163.121-.01.01-.015.026-.026.037-.031.042-.052.084-.079.131-.026.037-.047.079-.068.12-.01.043-.016.09-.02.137-.006.048-.017.09-.017.142.006.047.016.09.027.131.015.048.026.1.052.147.005.016 0 .032.01.042a.49.49 0 0 0 .069.079c.016.026.026.058.052.084.016.016.032.021.042.032.032.02.063.042.09.057a.353.353 0 0 0 .147.074c.036.016.062.02.094.031.026.006.047.016.068.016 6.3 1.113 10.058 4.252 11.491 9.59.09.331.383.552.709.552a.646.646 0 0 0 .2-.021.75.75 0 0 0 .524-.914c-1.443-5.39-4.981-8.75-10.772-10.246l1.586-.882c.346-.2.656-.436.929-.709a4.43 4.43 0 0 0 1.239-2.488c.126.01.252.031.388.031 1.082 0 2.074-.456 2.82-1.202.052-.052.099-.11.151-.163.562 1.749 2.021 3.008 3.743 3.008.966 0 1.9-.399 2.63-1.128.877-.877 1.376-2.142 1.376-3.465V10.761c0-1.69 1.034-3.112 2.262-3.112s2.263 1.422 2.263 3.113L29.86 39.89v.019a3.869 3.869 0 0 1-3.869 3.869h-5.464zM18.81 23.297c-.52-1.973-.52-4.122 0-6.446 0-.934.341-1.811.94-2.41.32-.32.856-.698 1.58-.698.65 0 1.265.31 1.743.872.504.598.782 1.39.782 2.241v6.436c0 .934-.341 1.821-.94 2.42-.315.315-.85.693-1.585.693-1.386 0-2.04-1.29-2.52-3.108zm-4.609 1.428c-.1-.488-.257-.96-.504-1.407-.509-.908-1.107-1.485-1.79-1.78v-6.33c0-1.711 1.218-3.108 2.709-3.108.703 0 1.375.315 1.89.882a3.39 3.39 0 0 1 .819 2.236v6.436c0 1.711-1.218 3.108-2.709 3.108-.136 0-.283-.01-.415-.037zm-9.18-1.244l.004-18.126c0-1.712 1.208-3.108 2.699-3.108.703 0 1.37.31 1.879.882.525.598.819 1.386.819 2.226v16c-.525.073-1.082.262-1.69.598L5.02 23.481z"/>
    </g>
</svg>
