<svg aria-hidden="true" style="position: absolute; width: 0; height: 0; overflow: hidden;" version="1.1" xmlns="http://www.w3.org/2000/svg" xmlns:xlink="http://www.w3.org/1999/xlink">
<defs>
<symbol id="icon-notifications_none" viewBox="0 0 32 32">
<title>notifications_none</title>
<path d="M21.313 22.688v-8c0-3.313-2-6-5.313-6s-5.313 2.688-5.313 6v8h10.625zM24 21.313l2.688 2.688v1.313h-21.375v-1.313l2.688-2.688v-6.625c0-4.125 2.188-7.5 6-8.438v-0.938c0-1.125 0.875-2 2-2s2 0.875 2 2v0.938c3.813 0.938 6 4.375 6 8.438v6.625zM16 29.313c-1.438 0-2.688-1.188-2.688-2.625h5.375c0 1.438-1.25 2.625-2.688 2.625z"></path>
</symbol>
<symbol id="icon-share" viewBox="0 0 32 32">
<title>share</title>
<path d="M24 21.438c2.125 0 3.875 1.75 3.875 3.875s-1.75 3.938-3.875 3.938-3.875-1.813-3.875-3.938c0-0.313 0-0.625 0.063-0.875l-9.438-5.5c-0.75 0.688-1.688 1.063-2.75 1.063-2.188 0-4-1.813-4-4s1.813-4 4-4c1.063 0 2 0.375 2.75 1.063l9.375-5.438c-0.063-0.313-0.125-0.625-0.125-0.938 0-2.188 1.813-4 4-4s4 1.813 4 4-1.813 4-4 4c-1.063 0-2-0.438-2.75-1.125l-9.375 5.5c0.063 0.313 0.125 0.625 0.125 0.938s-0.063 0.625-0.125 0.938l9.5 5.5c0.688-0.625 1.625-1 2.625-1z"></path>
</symbol>
<symbol id="icon-tune" viewBox="0 0 32 32">
<title>tune</title>
<path d="M20 12v-8h2.688v2.688h5.313v2.625h-5.313v2.688h-2.688zM28 17.313h-13.313v-2.625h13.313v2.625zM9.313 12h2.688v8h-2.688v-2.688h-5.313v-2.625h5.313v-2.688zM17.313 28h-2.625v-8h2.625v2.688h10.688v2.625h-10.688v2.688zM4 6.688h13.313v2.625h-13.313v-2.625zM4 22.688h8v2.625h-8v-2.625z"></path>
</symbol>
</defs>
</svg>
