<svg aria-hidden="true" style="position: absolute; width: 0; height: 0; overflow: hidden;" version="1.1" xmlns="http://www.w3.org/2000/svg" xmlns:xlink="http://www.w3.org/1999/xlink">
<defs>
<symbol id="icon-telegram" viewBox="0 0 32 32">
<title>telegram</title>
<path d="M21.232 23.339l2.625-12.375c0.232-1.089-0.393-1.518-1.107-1.25l-15.429 5.946c-1.054 0.411-1.036 1-0.179 1.268l3.946 1.232 9.161-5.768c0.429-0.286 0.821-0.125 0.5 0.161l-7.411 6.696-0.286 4.071c0.411 0 0.589-0.179 0.804-0.393l1.929-1.857 4 2.946c0.732 0.411 1.25 0.196 1.446-0.679zM32 16c0 8.839-7.161 16-16 16s-16-7.161-16-16 7.161-16 16-16 16 7.161 16 16z"></path>
</symbol>
<symbol id="icon-spinner8" viewBox="0 0 32 32">
<title>spinner8</title>
<path d="M16 32c-4.274 0-8.292-1.664-11.314-4.686s-4.686-7.040-4.686-11.314c0-3.026 0.849-5.973 2.456-8.522 1.563-2.478 3.771-4.48 6.386-5.791l1.344 2.682c-2.126 1.065-3.922 2.693-5.192 4.708-1.305 2.069-1.994 4.462-1.994 6.922 0 7.168 5.832 13 13 13s13-5.832 13-13c0-2.459-0.69-4.853-1.994-6.922-1.271-2.015-3.066-3.643-5.192-4.708l1.344-2.682c2.615 1.31 4.824 3.313 6.386 5.791 1.607 2.549 2.456 5.495 2.456 8.522 0 4.274-1.664 8.292-4.686 11.314s-7.040 4.686-11.314 4.686z"></path>
</symbol>
<symbol id="icon-facebook" viewBox="0 0 32 32">
<title>facebook</title>
<path d="M19 6h5v-6h-5c-3.86 0-7 3.14-7 7v3h-4v6h4v16h6v-16h5l1-6h-6v-3c0-0.542 0.458-1 1-1z"></path>
</symbol>
<symbol id="icon-twitter" viewBox="0 0 32 32">
<title>twitter</title>
<path d="M32 7.075c-1.175 0.525-2.444 0.875-3.769 1.031 1.356-0.813 2.394-2.1 2.887-3.631-1.269 0.75-2.675 1.3-4.169 1.594-1.2-1.275-2.906-2.069-4.794-2.069-3.625 0-6.563 2.938-6.563 6.563 0 0.512 0.056 1.012 0.169 1.494-5.456-0.275-10.294-2.888-13.531-6.862-0.563 0.969-0.887 2.1-0.887 3.3 0 2.275 1.156 4.287 2.919 5.463-1.075-0.031-2.087-0.331-2.975-0.819 0 0.025 0 0.056 0 0.081 0 3.181 2.263 5.838 5.269 6.437-0.55 0.15-1.131 0.231-1.731 0.231-0.425 0-0.831-0.044-1.237-0.119 0.838 2.606 3.263 4.506 6.131 4.563-2.25 1.762-5.075 2.813-8.156 2.813-0.531 0-1.050-0.031-1.569-0.094 2.913 1.869 6.362 2.95 10.069 2.95 12.075 0 18.681-10.006 18.681-18.681 0-0.287-0.006-0.569-0.019-0.85 1.281-0.919 2.394-2.075 3.275-3.394z"></path>
</symbol>
<symbol id="icon-add" viewBox="0 0 32 32">
<title>add</title>
<path d="M25.313 17.313h-8v8h-2.625v-8h-8v-2.625h8v-8h2.625v8h8v2.625z"></path>
</symbol>
<symbol id="icon-check" viewBox="0 0 32 32">
<title>check</title>
<path d="M12 21.563l14.125-14.125 1.875 1.875-16 16-7.438-7.438 1.875-1.875z"></path>
</symbol>
<symbol id="icon-error_outline" viewBox="0 0 32 32">
<title>error_outline</title>
<path d="M16 26.688c5.875 0 10.688-4.813 10.688-10.688s-4.813-10.688-10.688-10.688-10.688 4.813-10.688 10.688 4.813 10.688 10.688 10.688zM16 2.688c7.375 0 13.313 5.938 13.313 13.313s-5.938 13.313-13.313 13.313-13.313-5.938-13.313-13.313 5.938-13.313 13.313-13.313zM14.688 9.313h2.625v8h-2.625v-8zM14.688 20h2.625v2.688h-2.625v-2.688z"></path>
</symbol>
<symbol id="icon-info_outline" viewBox="0 0 32 32">
<title>info_outline</title>
<path d="M14.688 12v-2.688h2.625v2.688h-2.625zM16 26.688c5.875 0 10.688-4.813 10.688-10.688s-4.813-10.688-10.688-10.688-10.688 4.813-10.688 10.688 4.813 10.688 10.688 10.688zM16 2.688c7.375 0 13.313 5.938 13.313 13.313s-5.938 13.313-13.313 13.313-13.313-5.938-13.313-13.313 5.938-13.313 13.313-13.313zM14.688 22.688v-8h2.625v8h-2.625z"></path>
</symbol>
<symbol id="icon-notifications_none" viewBox="0 0 32 32">
<title>notifications_none</title>
<path d="M21.313 22.688v-8c0-3.313-2-6-5.313-6s-5.313 2.688-5.313 6v8h10.625zM24 21.313l2.688 2.688v1.313h-21.375v-1.313l2.688-2.688v-6.625c0-4.125 2.188-7.5 6-8.438v-0.938c0-1.125 0.875-2 2-2s2 0.875 2 2v0.938c3.813 0.938 6 4.375 6 8.438v6.625zM16 29.313c-1.438 0-2.688-1.188-2.688-2.625h5.375c0 1.438-1.25 2.625-2.688 2.625z"></path>
</symbol>
<symbol id="icon-person_add" viewBox="0 0 32 32">
<title>person_add</title>
<path d="M20 18.688c3.563 0 10.688 1.75 10.688 5.313v2.688h-21.375v-2.688c0-3.563 7.125-5.313 10.688-5.313zM8 13.313h4v2.688h-4v4h-2.688v-4h-4v-2.688h4v-4h2.688v4zM20 16c-2.938 0-5.313-2.375-5.313-5.313s2.375-5.375 5.313-5.375 5.313 2.438 5.313 5.375-2.375 5.313-5.313 5.313z"></path>
</symbol>
<symbol id="icon-sentiment_dissatisfied" viewBox="0 0 32 32">
<title>sentiment_dissatisfied</title>
<path d="M16 18.688c3.125 0 5.75 1.875 6.813 4.625h-2.188c-0.938-1.563-2.625-2.625-4.625-2.625s-3.688 1.063-4.625 2.625h-2.188c1.063-2.75 3.688-4.625 6.813-4.625zM16 26.688c5.875 0 10.688-4.813 10.688-10.688s-4.813-10.688-10.688-10.688-10.688 4.813-10.688 10.688 4.813 10.688 10.688 10.688zM16 2.688c7.375 0 13.313 5.938 13.313 13.313s-5.938 13.313-13.313 13.313-13.313-5.938-13.313-13.313 5.938-13.313 13.313-13.313zM9.313 12.688c0-1.125 0.875-2 2-2s2 0.875 2 2-0.875 2-2 2-2-0.875-2-2zM18.688 12.688c0-1.125 0.875-2 2-2s2 0.875 2 2-0.875 2-2 2-2-0.875-2-2z"></path>
</symbol>
<symbol id="icon-sentiment_neutral" viewBox="0 0 32 32">
<title>sentiment_neutral</title>
<path d="M16 26.688c5.875 0 10.688-4.813 10.688-10.688s-4.813-10.688-10.688-10.688-10.688 4.813-10.688 10.688 4.813 10.688 10.688 10.688zM16 2.688c7.375 0 13.313 5.938 13.313 13.313s-5.938 13.313-13.313 13.313-13.313-5.938-13.313-13.313 5.938-13.313 13.313-13.313zM9.313 12.688c0-1.125 0.875-2 2-2s2 0.875 2 2-0.875 2-2 2-2-0.875-2-2zM18.688 12.688c0-1.125 0.875-2 2-2s2 0.875 2 2-0.875 2-2 2-2-0.875-2-2zM12 18.688h8v2h-8v-2z"></path>
</symbol>
<symbol id="icon-sentiment_satisfied" viewBox="0 0 32 32">
<title>sentiment_satisfied</title>
<path d="M16 21.313c2 0 3.688-1.063 4.625-2.625h2.188c-1.063 2.75-3.688 4.625-6.813 4.625s-5.75-1.875-6.813-4.625h2.188c0.938 1.563 2.625 2.625 4.625 2.625zM16 26.688c5.875 0 10.688-4.813 10.688-10.688s-4.813-10.688-10.688-10.688-10.688 4.813-10.688 10.688 4.813 10.688 10.688 10.688zM16 2.688c7.375 0 13.313 5.938 13.313 13.313s-5.938 13.313-13.313 13.313-13.313-5.938-13.313-13.313 5.938-13.313 13.313-13.313zM9.313 12.688c0-1.125 0.875-2 2-2s2 0.875 2 2-0.875 2-2 2-2-0.875-2-2zM18.688 12.688c0-1.125 0.875-2 2-2s2 0.875 2 2-0.875 2-2 2-2-0.875-2-2z"></path>
</symbol>
<symbol id="icon-share" viewBox="0 0 32 32">
<title>share</title>
<path d="M24 21.438c2.125 0 3.875 1.75 3.875 3.875s-1.75 3.938-3.875 3.938-3.875-1.813-3.875-3.938c0-0.313 0-0.625 0.063-0.875l-9.438-5.5c-0.75 0.688-1.688 1.063-2.75 1.063-2.188 0-4-1.813-4-4s1.813-4 4-4c1.063 0 2 0.375 2.75 1.063l9.375-5.438c-0.063-0.313-0.125-0.625-0.125-0.938 0-2.188 1.813-4 4-4s4 1.813 4 4-1.813 4-4 4c-1.063 0-2-0.438-2.75-1.125l-9.375 5.5c0.063 0.313 0.125 0.625 0.125 0.938s-0.063 0.625-0.125 0.938l9.5 5.5c0.688-0.625 1.625-1 2.625-1z"></path>
</symbol>
<symbol id="icon-tune" viewBox="0 0 32 32">
<title>tune</title>
<path d="M20 12v-8h2.688v2.688h5.313v2.625h-5.313v2.688h-2.688zM28 17.313h-13.313v-2.625h13.313v2.625zM9.313 12h2.688v8h-2.688v-2.688h-5.313v-2.625h5.313v-2.688zM17.313 28h-2.625v-8h2.625v2.688h10.688v2.625h-10.688v2.688zM4 6.688h13.313v2.625h-13.313v-2.625zM4 22.688h8v2.625h-8v-2.625z"></path>
</symbol>
</defs>
</svg>
